<svg width="850" height="1107" viewBox="0 0 850 1107" fill="none" xmlns="http://www.w3.org/2000/svg">
<circle cx="425" cy="505" r="425" fill="black"/>
<path d="M265.344 281.562C269.25 281.562 272.505 282.995 275.109 285.859C277.714 288.464 279.016 291.589 279.016 295.234C279.016 298.88 277.714 302.135 275.109 305C272.505 307.604 269.25 308.906 265.344 308.906H200.109V492.109C200.109 496.016 198.677 499.401 195.812 502.266C193.208 505.13 189.823 506.562 185.656 506.562C181.75 506.562 178.365 505.13 175.5 502.266C172.635 499.401 171.203 496.016 171.203 492.109V308.906H105.969C102.323 308.906 99.0677 307.604 96.2031 305C93.599 302.396 92.2969 299.141 92.2969 295.234C92.2969 291.589 93.599 288.464 96.2031 285.859C98.8073 282.995 102.062 281.562 105.969 281.562H265.344ZM332.141 310.469C352.453 289.115 379.536 278.438 413.391 278.438C447.245 278.438 474.328 289.115 494.641 310.469C514.432 331.562 524.719 359.167 525.5 393.281C524.719 427.135 514.432 454.74 494.641 476.094C474.328 497.448 447.245 508.125 413.391 508.125C379.536 508.125 352.453 497.448 332.141 476.094C311.828 454.74 301.411 427.135 300.891 393.281C301.411 359.427 311.828 331.823 332.141 310.469ZM413.391 480.781C439.432 480.781 459.875 472.448 474.719 455.781C489.302 439.635 496.594 418.802 496.594 393.281C496.594 367.76 489.302 346.927 474.719 330.781C459.615 313.854 439.172 305.521 413.391 305.781C387.349 305.781 366.776 314.115 351.672 330.781C337.089 346.927 329.927 367.76 330.188 393.281C330.188 418.802 337.349 439.635 351.672 455.781C366.776 472.448 387.349 480.781 413.391 480.781ZM661.047 281.562C690.734 281.562 713 289.245 727.844 304.609C740.083 316.849 746.333 332.865 746.594 352.656C746.594 372.188 740.344 388.203 727.844 400.703C712.74 416.068 690.474 423.75 661.047 423.75H602.844V492.109C602.844 496.016 601.411 499.401 598.547 502.266C595.682 505.13 592.167 506.562 588 506.562C584.094 506.562 580.708 505.13 577.844 502.266C574.979 499.401 573.547 496.016 573.547 492.109V296.406C573.547 292.5 574.979 289.115 577.844 286.25C580.708 283.125 584.094 281.562 588 281.562H661.047ZM658.312 396.406C680.188 396.406 696.073 391.719 705.969 382.344C713.781 375.052 717.557 365.156 717.297 352.656C717.297 332.865 707.401 319.714 687.609 313.203C679.797 310.599 670.031 309.167 658.312 308.906H602.844V396.406H658.312Z" fill="white"/>
<path d="M401.5 554.051L401.551 566.551L426.551 566.449L426.5 553.949L401.5 554.051ZM413 307L341.338 432.291L485.674 431.707L413 307ZM426.5 553.949L425.955 419.448L400.956 419.55L401.5 554.051L426.5 553.949Z" fill="#3CB591"/>
<path d="M278.438 539C282.344 539 285.729 540.432 288.594 543.297C291.719 546.161 293.281 549.677 293.281 553.844V680.406C293.281 708.271 283.255 730.146 263.203 746.031C246.016 760.094 225.312 767.125 201.094 767.125C176.615 767.125 155.911 760.094 138.984 746.031C119.193 729.885 109.297 708.01 109.297 680.406V553.844C109.297 549.938 110.729 546.552 113.594 543.688C116.458 540.562 119.844 539 123.75 539C127.656 539 131.042 540.432 133.906 543.297C137.031 546.161 138.594 549.677 138.594 553.844V681.188C138.594 700.198 145.104 715.042 158.125 725.719C170.104 735.615 184.427 740.562 201.094 740.562C218.021 740.562 232.474 735.615 244.453 725.719C257.474 714.781 263.984 699.938 263.984 681.188V553.844C263.984 549.938 265.417 546.552 268.281 543.688C271.146 540.562 274.531 539 278.438 539ZM523.359 742.125C525.703 744.99 526.875 748.375 526.875 752.281C526.875 755.927 525.573 759.052 522.969 761.656C520.365 764.26 516.849 765.562 512.422 765.562C507.995 765.562 504.219 763.74 501.094 760.094L418.672 654.625L382.344 691.344V751.109C382.344 755.016 380.911 758.401 378.047 761.266C375.182 764.13 371.667 765.562 367.5 765.562C363.594 765.562 360.208 764.13 357.344 761.266C354.479 758.401 353.047 755.016 353.047 751.109V553.844C353.047 549.938 354.479 546.552 357.344 543.688C360.208 540.562 363.594 539 367.5 539C371.406 539 374.792 540.432 377.656 543.297C380.781 546.161 382.344 549.677 382.344 553.844V655.406L491.719 544.469C494.323 541.083 497.708 539.391 501.875 539.391C506.302 539.13 509.818 540.302 512.422 542.906C515.026 545.25 516.328 548.505 516.328 552.672C516.328 556.578 515.026 559.573 512.422 561.656L438.594 635.094L523.359 742.125ZM749.531 744.859C750.573 747.464 751.094 750.198 751.094 753.062C751.094 755.667 749.792 758.401 747.188 761.266C744.844 764.13 740.807 765.562 735.078 765.562C729.609 765.562 725.573 762.568 722.969 756.578L702.266 706.969H593.281L572.969 756.578C570.365 762.568 566.198 765.562 560.469 765.562C555 765.562 550.964 764.13 548.359 761.266C546.016 758.401 544.844 755.667 544.844 753.062C544.844 750.198 545.365 747.464 546.406 744.859L627.656 552.281C631.302 543.427 637.552 539 646.406 539H649.531C658.125 539 664.375 543.427 668.281 552.281L749.531 744.859ZM691.328 680.406L647.969 576.109L604.609 680.406H691.328Z" fill="#3CB591"/>
</svg>
