<svg width="324" height="169" viewBox="0 0 324 169" fill="none" xmlns="http://www.w3.org/2000/svg">
<path d="M6.13636 150V106.364H12.6136V112.955H13.0682C13.8636 110.795 15.303 109.044 17.3864 107.699C19.4697 106.354 21.8182 105.682 24.4318 105.682C24.9242 105.682 25.5398 105.691 26.2784 105.71C27.017 105.729 27.5758 105.758 27.9545 105.795V112.614C27.7273 112.557 27.2064 112.472 26.392 112.358C25.5966 112.225 24.7538 112.159 23.8636 112.159C21.7424 112.159 19.8485 112.604 18.1818 113.494C16.5341 114.366 15.2273 115.578 14.2614 117.131C13.3144 118.665 12.8409 120.417 12.8409 122.386V150H6.13636ZM52.8693 150.909C48.6648 150.909 45.0379 149.981 41.9886 148.125C38.9583 146.25 36.6193 143.636 34.9716 140.284C33.3428 136.913 32.5284 132.992 32.5284 128.523C32.5284 124.053 33.3428 120.114 34.9716 116.705C36.6193 113.277 38.911 110.606 41.8466 108.693C44.8011 106.761 48.2481 105.795 52.1875 105.795C54.4602 105.795 56.7045 106.174 58.9205 106.932C61.1364 107.689 63.1534 108.92 64.9716 110.625C66.7898 112.311 68.2386 114.545 69.3182 117.33C70.3977 120.114 70.9375 123.542 70.9375 127.614V130.455H37.3011V124.659H64.1193C64.1193 122.197 63.6269 120 62.642 118.068C61.6761 116.136 60.2936 114.612 58.4943 113.494C56.714 112.377 54.6117 111.818 52.1875 111.818C49.517 111.818 47.2064 112.481 45.2557 113.807C43.3239 115.114 41.8371 116.818 40.7955 118.92C39.7538 121.023 39.233 123.277 39.233 125.682V129.545C39.233 132.841 39.8011 135.634 40.9375 137.926C42.0928 140.199 43.6932 141.932 45.7386 143.125C47.7841 144.299 50.161 144.886 52.8693 144.886C54.6307 144.886 56.2216 144.64 57.642 144.148C59.0814 143.636 60.322 142.879 61.3636 141.875C62.4053 140.852 63.2102 139.583 63.7784 138.068L70.2557 139.886C69.5739 142.083 68.428 144.015 66.8182 145.682C65.2083 147.33 63.2197 148.617 60.8523 149.545C58.4848 150.455 55.8239 150.909 52.8693 150.909Z" fill="#D9D9D9"/>
<circle cx="93" cy="116" r="10" fill="#D9D9D9"/>
<circle cx="93" cy="140" r="10" fill="#FF7262"/>
<path d="M164.864 110H157.818C157.402 107.973 156.672 106.193 155.631 104.659C154.608 103.125 153.358 101.837 151.881 100.795C150.422 99.7348 148.803 98.9394 147.023 98.4091C145.242 97.8788 143.386 97.6136 141.455 97.6136C137.932 97.6136 134.741 98.5038 131.881 100.284C129.04 102.064 126.777 104.688 125.091 108.153C123.424 111.619 122.591 115.871 122.591 120.909C122.591 125.947 123.424 130.199 125.091 133.665C126.777 137.131 129.04 139.754 131.881 141.534C134.741 143.314 137.932 144.205 141.455 144.205C143.386 144.205 145.242 143.939 147.023 143.409C148.803 142.879 150.422 142.093 151.881 141.051C153.358 139.991 154.608 138.693 155.631 137.159C156.672 135.606 157.402 133.826 157.818 131.818H164.864C164.333 134.792 163.367 137.453 161.966 139.801C160.564 142.15 158.822 144.148 156.739 145.795C154.655 147.424 152.316 148.665 149.722 149.517C147.146 150.369 144.39 150.795 141.455 150.795C136.492 150.795 132.08 149.583 128.216 147.159C124.352 144.735 121.313 141.288 119.097 136.818C116.881 132.348 115.773 127.045 115.773 120.909C115.773 114.773 116.881 109.47 119.097 105C121.313 100.53 124.352 97.0833 128.216 94.6591C132.08 92.2348 136.492 91.0227 141.455 91.0227C144.39 91.0227 147.146 91.4489 149.722 92.3011C152.316 93.1534 154.655 94.4034 156.739 96.0511C158.822 97.6799 160.564 99.6686 161.966 102.017C163.367 104.347 164.333 107.008 164.864 110ZM182.044 123.75V150H175.339V91.8182H182.044V113.182H182.612C183.635 110.928 185.169 109.138 187.214 107.812C189.279 106.468 192.025 105.795 195.453 105.795C198.427 105.795 201.031 106.392 203.266 107.585C205.5 108.759 207.233 110.568 208.464 113.011C209.714 115.436 210.339 118.523 210.339 122.273V150H203.635V122.727C203.635 119.261 202.735 116.581 200.936 114.688C199.156 112.775 196.684 111.818 193.521 111.818C191.324 111.818 189.355 112.282 187.612 113.21C185.889 114.138 184.525 115.492 183.521 117.273C182.536 119.053 182.044 121.212 182.044 123.75ZM235.446 151.023C232.681 151.023 230.171 150.502 227.918 149.46C225.664 148.4 223.874 146.875 222.548 144.886C221.223 142.879 220.56 140.455 220.56 137.614C220.56 135.114 221.052 133.087 222.037 131.534C223.022 129.962 224.338 128.731 225.986 127.841C227.634 126.951 229.452 126.288 231.44 125.852C233.448 125.398 235.465 125.038 237.491 124.773C240.143 124.432 242.293 124.176 243.94 124.006C245.607 123.816 246.819 123.504 247.577 123.068C248.353 122.633 248.741 121.875 248.741 120.795V120.568C248.741 117.765 247.974 115.587 246.44 114.034C244.925 112.481 242.624 111.705 239.537 111.705C236.336 111.705 233.827 112.405 232.009 113.807C230.19 115.208 228.912 116.705 228.173 118.295L221.81 116.023C222.946 113.371 224.461 111.307 226.355 109.83C228.268 108.333 230.351 107.292 232.605 106.705C234.878 106.098 237.113 105.795 239.31 105.795C240.711 105.795 242.321 105.966 244.139 106.307C245.976 106.629 247.747 107.301 249.452 108.324C251.175 109.347 252.605 110.89 253.741 112.955C254.878 115.019 255.446 117.784 255.446 121.25V150H248.741V144.091H248.401C247.946 145.038 247.188 146.051 246.128 147.131C245.067 148.21 243.656 149.129 241.895 149.886C240.134 150.644 237.984 151.023 235.446 151.023ZM236.469 145C239.12 145 241.355 144.479 243.173 143.438C245.01 142.396 246.393 141.051 247.321 139.403C248.268 137.756 248.741 136.023 248.741 134.205V128.068C248.457 128.409 247.832 128.722 246.866 129.006C245.92 129.271 244.821 129.508 243.571 129.716C242.34 129.905 241.137 130.076 239.963 130.227C238.808 130.36 237.87 130.473 237.151 130.568C235.408 130.795 233.779 131.165 232.264 131.676C230.768 132.169 229.556 132.917 228.628 133.92C227.719 134.905 227.264 136.25 227.264 137.955C227.264 140.284 228.126 142.045 229.849 143.239C231.592 144.413 233.798 145 236.469 145ZM267.683 150V106.364H274.161V112.955H274.615C275.411 110.795 276.85 109.044 278.933 107.699C281.017 106.354 283.365 105.682 285.979 105.682C286.471 105.682 287.087 105.691 287.825 105.71C288.564 105.729 289.123 105.758 289.501 105.795V112.614C289.274 112.557 288.753 112.472 287.939 112.358C287.143 112.225 286.301 112.159 285.411 112.159C283.289 112.159 281.395 112.604 279.729 113.494C278.081 114.366 276.774 115.578 275.808 117.131C274.861 118.665 274.388 120.417 274.388 122.386V150H267.683ZM319.161 106.364V112.045H296.547V106.364H319.161ZM303.138 95.9091H309.842V137.5C309.842 139.394 310.117 140.814 310.666 141.761C311.234 142.689 311.954 143.314 312.825 143.636C313.715 143.939 314.653 144.091 315.638 144.091C316.376 144.091 316.982 144.053 317.456 143.977C317.929 143.883 318.308 143.807 318.592 143.75L319.956 149.773C319.501 149.943 318.867 150.114 318.053 150.284C317.238 150.473 316.206 150.568 314.956 150.568C313.062 150.568 311.206 150.161 309.388 149.347C307.589 148.532 306.092 147.292 304.899 145.625C303.725 143.958 303.138 141.856 303.138 139.318V95.9091Z" fill="#FF7262"/>
<path d="M68.0069 26.368C67.5511 45.2148 89.8778 85.0105 89.8778 85.0105C103.5 40 119 49 117.892 26.368C116.785 3.7359 93.9025 5.0808 89.8778 5.01182C85.8531 4.94283 68.4626 7.52117 68.0069 26.368Z" fill="#FF7262" stroke="#FF7262" stroke-width="10"/>
<path d="M114.904 28.5C114.904 40.3741 104.83 50 92.4039 50C79.9775 50 69.9039 40.3741 69.9039 28.5C69.9039 16.6259 79.9775 7 92.4039 7C104.83 7 114.904 16.6259 114.904 28.5Z" fill="#D9D9D9"/>
</svg>
